<svg width="20" height="22" viewBox="0 0 20 22" fill="none" xmlns="http://www.w3.org/2000/svg">
<path fill-rule="evenodd" clip-rule="evenodd" d="M8.50214 0.402641C8.95768 0.140138 9.47421 0.00195312 10 0.00195312C10.5258 0.00195312 11.0424 0.140149 11.4979 0.402673C11.4986 0.403074 11.4993 0.403475 11.5 0.403877L18.5 4.40387C18.9556 4.66692 19.334 5.04515 19.5973 5.50062C19.8606 5.95609 19.9995 6.47279 20 6.99888V15.0009C19.9995 15.527 19.8606 16.0437 19.5973 16.4992C19.334 16.9547 18.9556 17.3329 18.5 17.5959L18.4961 17.5981L11.5 21.5959C11.4994 21.5963 11.4988 21.5966 11.4982 21.597C11.0426 21.8596 10.5259 21.9979 10 21.9979C9.4741 21.9979 8.95745 21.8596 8.50185 21.597C8.50123 21.5966 8.50062 21.5963 8.5 21.5959L1.50386 17.5981L1.5 17.5959C1.04439 17.3329 0.66597 16.9547 0.402692 16.4992C0.139414 16.0437 0.000539601 15.527 0 15.0009V6.99888C0.000539601 6.47279 0.139414 5.95609 0.402692 5.50062C0.66597 5.04515 1.04439 4.66692 1.5 4.40388L1.50386 4.40165L8.50214 0.402641ZM10 2.00195C9.82446 2.00195 9.65202 2.04816 9.5 2.13593L9.49614 2.13815L2.5 6.13593C2.49947 6.13623 2.49895 6.13654 2.49842 6.13684C2.34726 6.22448 2.22169 6.35021 2.13423 6.50151C2.04654 6.65321 2.00025 6.82528 2 7.0005V14.9993C2.00025 15.1745 2.04654 15.3466 2.13423 15.4983C2.22169 15.6496 2.34726 15.7753 2.49842 15.863C2.49895 15.8633 2.49947 15.8636 2.5 15.8639L9.5 19.8639C9.65202 19.9516 9.82446 19.9979 10 19.9979C10.1755 19.9979 10.348 19.9516 10.5 19.8639L10.5039 19.8617L17.5 15.8639C17.5005 15.8636 17.5011 15.8633 17.5016 15.863C17.6527 15.7753 17.7783 15.6496 17.8658 15.4983C17.9535 15.3465 17.9998 15.1742 18 14.9989V7.00093C17.9998 6.82556 17.9535 6.65333 17.8658 6.50151C17.7783 6.35021 17.6527 6.22449 17.5016 6.13685C17.5011 6.13654 17.5005 6.13623 17.5 6.13593L10.5 2.13594C10.348 2.04817 10.1755 2.00195 10 2.00195ZM10 7.99991C8.34315 7.99991 7 9.34305 7 10.9999C7 12.6568 8.34315 13.9999 10 13.9999C11.6569 13.9999 13 12.6568 13 10.9999C13 9.34305 11.6569 7.99991 10 7.99991ZM5 10.9999C5 8.23848 7.23857 5.99991 10 5.99991C12.7614 5.99991 15 8.23848 15 10.9999C15 13.7613 12.7614 15.9999 10 15.9999C7.23857 15.9999 5 13.7613 5 10.9999Z" fill="#A1A1AA"/>
</svg>