<svg width="22" height="20" viewBox="0 0 22 20" fill="none" xmlns="http://www.w3.org/2000/svg">
<path fill-rule="evenodd" clip-rule="evenodd" d="M0.87868 0.87868C1.44129 0.31607 2.20435 0 3 0H16C16.7957 0 17.5587 0.31607 18.1213 0.87868C18.6839 1.44129 19 2.20435 19 3V14H20C20.5304 14 21.0391 14.2107 21.4142 14.5858C21.7893 14.9609 22 15.4696 22 16V17C22 17.7957 21.6839 18.5587 21.1213 19.1213C20.5587 19.6839 19.7957 20 19 20H7C6.20435 20 5.44129 19.6839 4.87868 19.1213C4.31607 18.5587 4 17.7957 4 17V7H2C1.46957 7 0.960859 6.78929 0.585786 6.41421C0.210714 6.03914 0 5.53043 0 5V3C0 2.20435 0.31607 1.44129 0.87868 0.87868ZM6 17C6 17.2652 6.10536 17.5196 6.29289 17.7071C6.48043 17.8946 6.73478 18 7 18C7.26522 18 7.51957 17.8946 7.70711 17.7071C7.89464 17.5196 8 17.2652 8 17V16C8 15.4696 8.21071 14.9609 8.58579 14.5858C8.96086 14.2107 9.46957 14 10 14H17V3C17 2.73478 16.8946 2.48043 16.7071 2.29289C16.5196 2.10536 16.2652 2 16 2H5.82843C5.94094 2.3182 6 2.65606 6 3V17ZM10 16V17C10 17.3439 9.94094 17.6818 9.82843 18H19C19.2652 18 19.5196 17.8946 19.7071 17.7071C19.8946 17.5196 20 17.2652 20 17V16L10 16ZM4 5H2V3C2 2.73478 2.10536 2.48043 2.29289 2.29289C2.48043 2.10536 2.73478 2 3 2C3.26522 2 3.51957 2.10536 3.70711 2.29289C3.89464 2.48043 4 2.73478 4 3V5ZM8 6C8 5.44772 8.44772 5 9 5H14C14.5523 5 15 5.44772 15 6C15 6.55228 14.5523 7 14 7H9C8.44772 7 8 6.55228 8 6ZM8 10C8 9.44771 8.44772 9 9 9H14C14.5523 9 15 9.44771 15 10C15 10.5523 14.5523 11 14 11H9C8.44772 11 8 10.5523 8 10Z" fill="#A1A1AA"/>
</svg>
