<svg width="20" height="20" viewBox="0 0 20 20" fill="none" xmlns="http://www.w3.org/2000/svg">
<path fill-rule="evenodd" clip-rule="evenodd" d="M0.87868 0.87868C1.44129 0.31607 2.20435 0 3 0H17C17.7957 0 18.5587 0.31607 19.1213 0.87868C19.6839 1.44129 20 2.20435 20 3V17C20 17.7957 19.6839 18.5587 19.1213 19.1213C18.5587 19.6839 17.7957 20 17 20H3C2.20435 20 1.44129 19.6839 0.87868 19.1213C0.31607 18.5587 0 17.7957 0 17V3C0 2.20435 0.31607 1.44129 0.87868 0.87868ZM3 2C2.73478 2 2.48043 2.10536 2.29289 2.29289C2.10536 2.48043 2 2.73478 2 3V6H6V2H3ZM8 2V6H18V3C18 2.73478 17.8946 2.48043 17.7071 2.29289C17.5196 2.10536 17.2652 2 17 2H8ZM18 8H8V18H17C17.2652 18 17.5196 17.8946 17.7071 17.7071C17.8946 17.5196 18 17.2652 18 17V8ZM6 18V8H2V17C2 17.2652 2.10536 17.5196 2.29289 17.7071C2.48043 17.8946 2.73478 18 3 18H6Z" fill="#A1A1AA"/>
</svg>
